<?xml version="1.0" encoding="UTF-8"?>
<!DOCTYPE svg PUBLIC "-//W3C//DTD SVG 1.1//EN" "http://www.w3.org/Graphics/SVG/1.1/DTD/svg11.dtd">
<!-- Creator: CorelDRAW X5 -->
<svg xmlns="http://www.w3.org/2000/svg" xml:space="preserve" width="128px" height="128px" style="shape-rendering:geometricPrecision; text-rendering:geometricPrecision; image-rendering:optimizeQuality; fill-rule:evenodd; clip-rule:evenodd"
viewBox="0 0 128 128"
 xmlns:xlink="http://www.w3.org/1999/xlink">
 <defs>
  <style type="text/css">
   <![CDATA[
    .str1 {stroke:#2B2A29;stroke-width:2.36223}
    .str0 {stroke:#2B2A29;stroke-width:2.36223;stroke-linecap:round;stroke-linejoin:round}
    .str3 {stroke:#008DD2;stroke-width:2.36223}
    .str2 {stroke:#009846;stroke-width:2.36223}
    .str4 {stroke:#393185;stroke-width:2.36223}
    .str7 {stroke:#E31E24;stroke-width:2.36223}
    .str6 {stroke:#EF7F1A;stroke-width:2.36223}
    .str5 {stroke:#FFED00;stroke-width:2.36223}
    .fil0 {fill:none}
    .fil2 {fill:#009846}
    .fil3 {fill:#00A0E3}
    .fil4 {fill:#393185}
    .fil7 {fill:#E31E24}
    .fil6 {fill:#EF7F1A}
    .fil5 {fill:#FFED00}
    .fil1 {fill:#2B2A29}
   ]]>
  </style>
 </defs>
 <g id="Layer_x0020_1">
  <metadata id="CorelCorpID_0Corel-Layer"/>
  <line class="fil0 str0" x1="15" y1="11" x2="15" y2= "119" />
  <line class="fil0 str1" x1="0" y1="64" x2="0" y2= "65" />
  <line class="fil0 str1" x1="64" y1="0" x2="64" y2= "1" />
  <line class="fil0 str1" x1="128" y1="64" x2="128" y2= "65" />
  <line class="fil0 str1" x1="64" y1="127" x2="64" y2= "128" />
  <circle class="fil1 str1" cx="49" cy="48" r="3"/>
  <circle class="fil2 str2" cx="76" cy="37" r="5"/>
  <circle class="fil1 str1" cx="89" cy="57" r="3"/>
  <circle class="fil3 str3" cx="64" cy="80" r="4"/>
  <circle class="fil4 str4" cx="91" cy="88" r="3"/>
  <circle class="fil1 str1" cx="55" cy="32" r="2"/>
  <circle class="fil5 str5" cx="32" cy="51" r="4"/>
  <circle class="fil1 str1" cx="38" cy="88" r="3"/>
  <circle class="fil6 str6" cx="66" cy="101" r="4"/>
  <circle class="fil4 str4" cx="102" cy="75" r="3"/>
  <circle class="fil7 str7" cx="99" cy="33" r="3"/>
  <circle class="fil7 str7" cx="37" cy="22" r="3"/>
  <line class="fil0 str0" x1="10" y1="116" x2="118" y2= "116" />
 </g>
</svg>
