<?xml version="1.0" encoding="UTF-8"?>
<!DOCTYPE svg PUBLIC "-//W3C//DTD SVG 1.1//EN" "http://www.w3.org/Graphics/SVG/1.1/DTD/svg11.dtd">
<!-- Creator: CorelDRAW X5 -->
<svg xmlns="http://www.w3.org/2000/svg" xml:space="preserve" width="128px" height="128px" style="shape-rendering:geometricPrecision; text-rendering:geometricPrecision; image-rendering:optimizeQuality; fill-rule:evenodd; clip-rule:evenodd"
viewBox="0 0 128 128"
 xmlns:xlink="http://www.w3.org/1999/xlink">
 <defs>
  <style type="text/css">
   <![CDATA[
    .str0 {stroke:#2B2A29;stroke-width:2.36223}
    .str2 {stroke:#008DD2;stroke-width:2.36223}
    .str1 {stroke:#009846;stroke-width:2.36223}
    .str4 {stroke:#393185;stroke-width:2.36223}
    .str5 {stroke:#E31E24;stroke-width:2.36223}
    .str3 {stroke:#EF7F1A;stroke-width:2.36223}
    .fil0 {fill:none}
    .fil1 {fill:#009846}
    .fil2 {fill:#00A0E3}
    .fil4 {fill:#393185}
    .fil5 {fill:#E31E24}
    .fil3 {fill:#EF7F1A}
   ]]>
  </style>
 </defs>
 <g id="Layer_x0020_1">
  <metadata id="CorelCorpID_0Corel-Layer"/>
  <line class="fil0 str0" x1="0" y1="64" x2="0" y2= "65" />
  <line class="fil0 str0" x1="64" y1="0" x2="64" y2= "1" />
  <line class="fil0 str0" x1="128" y1="64" x2="128" y2= "65" />
  <line class="fil0 str0" x1="64" y1="127" x2="64" y2= "128" />
  <circle class="fil1 str1" cx="90" cy="93" r="3"/>
  <circle class="fil1 str1" cx="28" cy="57" r="3"/>
  <circle class="fil1 str1" cx="71" cy="57" r="3"/>
  <circle class="fil1 str1" cx="30" cy="98" r="3"/>
  <circle class="fil1 str1" cx="50" cy="40" r="3"/>
  <circle class="fil1 str1" cx="88" cy="40" r="3"/>
  <circle class="fil1 str1" cx="52" cy="77" r="3"/>
  <circle class="fil1 str1" cx="103" cy="116" r="3"/>
  <circle class="fil1 str1" cx="113" cy="76" r="3"/>
  <circle class="fil2 str2" cx="87" cy="121" r="2"/>
  <circle class="fil2 str2" cx="13" cy="45" r="2"/>
  <circle class="fil2 str2" cx="83" cy="45" r="2"/>
  <circle class="fil2 str2" cx="13" cy="115" r="2"/>
  <circle class="fil2 str2" cx="8" cy="13" r="2"/>
  <circle class="fil2 str2" cx="115" cy="13" r="2"/>
  <circle class="fil2 str2" cx="10" cy="118" r="2"/>
  <circle class="fil2 str2" cx="22" cy="33" r="2"/>
  <circle class="fil2 str2" cx="95" cy="33" r="2"/>
  <circle class="fil2 str2" cx="25" cy="103" r="2"/>
  <circle class="fil2 str2" cx="98" cy="101" r="2"/>
  <circle class="fil2 str2" cx="33" cy="44" r="2"/>
  <circle class="fil2 str2" cx="83" cy="44" r="2"/>
  <circle class="fil2 str2" cx="95" cy="72" r="2"/>
  <circle class="fil2 str2" cx="112" cy="98" r="2"/>
  <circle class="fil2 str2" cx="110" cy="18" r="2"/>
  <circle class="fil3 str3" cx="77" cy="96" r="3"/>
  <circle class="fil3 str3" cx="102" cy="85" r="3"/>
  <circle class="fil3 str3" cx="28" cy="10" r="3"/>
  <circle class="fil3 str3" cx="118" cy="10" r="3"/>
  <circle class="fil3 str3" cx="28" cy="100" r="3"/>
  <circle class="fil3 str3" cx="116" cy="111" r="3"/>
  <circle class="fil4 str4" cx="119" cy="88" r="2"/>
  <circle class="fil4 str4" cx="116" cy="13" r="2"/>
  <circle class="fil4 str4" cx="19" cy="109" r="2"/>
  <circle class="fil4 str4" cx="77" cy="114" r="2"/>
  <circle class="fil4 str4" cx="76" cy="79" r="2"/>
  <circle class="fil4 str4" cx="51" cy="24" r="2"/>
  <circle class="fil4 str4" cx="5" cy="33" r="2"/>
  <circle class="fil5 str5" cx="86" cy="108" r="3"/>
  <circle class="fil5 str5" cx="40" cy="52" r="3"/>
  <circle class="fil5 str5" cx="76" cy="52" r="3"/>
  <circle class="fil5 str5" cx="44" cy="84" r="3"/>
  <circle class="fil5 str5" cx="33" cy="25" r="3"/>
  <circle class="fil5 str5" cx="103" cy="25" r="3"/>
  <circle class="fil5 str5" cx="36" cy="92" r="3"/>
  <circle class="fil5 str5" cx="45" cy="13" r="3"/>
  <circle class="fil5 str5" cx="115" cy="13" r="3"/>
  <circle class="fil5 str5" cx="48" cy="81" r="3"/>
  <line class="fil0 str0" x1="64" y1="2" x2="64" y2= "125" />
  <line class="fil0 str0" x1="2" y1="64" x2="126" y2= "65" />
 </g>
</svg>
