<?xml version="1.0" encoding="UTF-8"?>
<!DOCTYPE svg PUBLIC "-//W3C//DTD SVG 1.1//EN" "http://www.w3.org/Graphics/SVG/1.1/DTD/svg11.dtd">
<!-- Creator: CorelDRAW X5 -->
<svg xmlns="http://www.w3.org/2000/svg" xml:space="preserve" width="128px" height="128px" style="shape-rendering:geometricPrecision; text-rendering:geometricPrecision; image-rendering:optimizeQuality; fill-rule:evenodd; clip-rule:evenodd"
viewBox="0 0 12800000 12800000"
 xmlns:xlink="http://www.w3.org/1999/xlink">
 <defs>
  <style type="text/css">
   <![CDATA[
    .str0 {stroke:#2B2A29;stroke-width:236223}
    .fil0 {fill:none}
    .fil1 {fill:black}
   ]]>
  </style>
 </defs>
 <g id="Layer_x0020_1">
  <metadata id="CorelCorpID_0Corel-Layer"/>
  <line class="fil0 str0" x1="0" y1="6400000" x2="0" y2= "6462363" />
  <line class="fil0 str0" x1="6400000" y1="0" x2="6400000" y2= "62363" />
  <line class="fil0 str0" x1="12800118" y1="6400000" x2="12800118" y2= "6462363" />
  <line class="fil0 str0" x1="6400000" y1="12737755" x2="6400000" y2= "12800118" />
  <circle class="fil0 str0" cx="6400000" cy="6400000" r="5450854"/>
  <g id="latex">
    <metadata id="CorelCorpID_1">
     <odm name="Comments" value="Prob" type="0"/>
    </metadata>
   <path class="fil1" d="M2427431 6723744l841900 0c582763,0 1115801,-393548 1115801,-896586 0,-483195 -483195,-921626 -1155723,-921626l-1678721 -118 0 144569 99686 0c358587,0 373587,49843 373587,234215l0 2644875c0,184490 -15000,234334 -373587,234334l-99686 -118 0 144569 1350017 0 0 -144569 -99686 0c-358587,0 -373587,-49725 -373587,-233979l0 -1205566zm-9921 -119529l0 -1354977c0,-164530 9921,-199254 229137,-199254l468195 0c807057,0 807057,562920 807057,777175 0,209058 0,777057 -812018,777057l-692371 0z"/>
   <path class="fil1" d="M5473414 7146938c0,-482959 199254,-936271 582881,-936271 39804,0 49725,0 69686,4961 -39804,19843 -119529,49843 -119529,184372 0,144451 114568,199254 194294,199254 99568,0 199254,-64725 199254,-199254 0,-149529 -134529,-288901 -348784,-288901 -423312,-118 -567881,458273 -597763,552881l-4961 0 0 -552999 -667449 54922 0 144332c338744,0 378548,34961 378548,279098l0 1349898c0,224058 -54804,224176 -378548,224176l0 144451 1165644 0 0 -144569 -99686 0c-363666,0 -373587,-54686 -373587,-233979l0 -782372z"/>
   <path class="fil1" d="M8828022 7241664c0,-642409 -488156,-1155487 -1066076,-1155487 -597763,-236 -1070919,527959 -1070919,1155723 0,637567 498077,1115801 1065958,1115801 587842,-118 1071037,-488274 1071037,-1115801l0 -236zm-1065958 1006430c-184372,0 -408548,-79725 -552999,-323744 -134529,-224176 -139490,-518156 -139490,-727332 0,-189451 0,-493116 154490,-717292 139490,-214255 358587,-293980 532920,-293980 194294,0 403470,89647 537999,283941 154490,229137 154490,542959 154490,727332 0,174215 0,483195 -129569,717292 -139490,239058 -368627,333784 -557960,333784l118 0z"/>
   <path class="fil1" d="M9823467 4850729l-692371 54686 0 144569c338744,0 378548,34961 378548,278980l0 2978895 109608 0c19961,-39804 159451,-288901 179294,-323744 114568,184018 328823,373587 647606,373587 572842,-118 1075997,-483195 1075997,-1125841 0,-632606 -468313,-1120762 -1021194,-1120762 -274019,-118 -508116,124490 -677489,333666l0 -1594035zm9921 1862858c0,-89529 0,-99450 54804,-179057 119647,-179530 338744,-323862 582881,-323862 149411,0 672410,59765 672410,1016233 118,333784 -49725,542959 -169254,722253 -99686,154372 -298941,308862 -548038,308862 -268940,-118 -443273,-174333 -527959,-308862 -64843,-104647 -64843,-124490 -64843,-209176l0 -1026391z"/>
  </g>
 </g>
</svg>
