<?xml version="1.0" encoding="UTF-8"?>
<!DOCTYPE svg PUBLIC "-//W3C//DTD SVG 1.1//EN" "http://www.w3.org/Graphics/SVG/1.1/DTD/svg11.dtd">
<!-- Creator: CorelDRAW X5 -->
<svg xmlns="http://www.w3.org/2000/svg" xml:space="preserve" width="128px" height="128px" style="shape-rendering:geometricPrecision; text-rendering:geometricPrecision; image-rendering:optimizeQuality; fill-rule:evenodd; clip-rule:evenodd"
viewBox="0 0 12800000 12800000"
 xmlns:xlink="http://www.w3.org/1999/xlink">
 <defs>
  <style type="text/css">
   <![CDATA[
    .str0 {stroke:#2B2A29;stroke-width:236223}
    .fil0 {fill:none}
    .fil1 {fill:black}
   ]]>
  </style>
 </defs>
 <g id="Layer_x0020_1">
  <metadata id="CorelCorpID_0Corel-Layer"/>
  <line class="fil0 str0" x1="0" y1="6400000" x2="0" y2= "6462363" />
  <line class="fil0 str0" x1="6400000" y1="0" x2="6400000" y2= "62363" />
  <line class="fil0 str0" x1="12800118" y1="6400000" x2="12800118" y2= "6462363" />
  <line class="fil0 str0" x1="6400000" y1="12737755" x2="6400000" y2= "12800118" />
  <circle class="fil0 str0" cx="6400000" cy="6400000" r="5450854"/>
  <g id="latex">
    <metadata id="CorelCorpID_1">
     <odm name="Comments" value="Algo" type="0"/>
    </metadata>
   <path class="fil1" d="M3023895 4407338c-19961,-59765 -29882,-89529 -99686,-89529 -69686,-236 -79725,14882 -104647,94607l-1041036 2978777c-69804,204215 -209294,333902 -528077,338862l0 144451 986351 0 0 -144569c-209176,-4961 -333784,-109490 -333784,-248979 0,-30000 0,-39804 24922,-104647l229137 -662725 1255291 0 274019 782136c24922,59765 24922,69922 24922,84922 0,149293 -254058,149411 -378666,149411l0 144451 1260370 0 0 -144569c-323744,0 -413509,118 -483195,-204097l-1085919 -3118503zm-239176 503274l577920 1658642 -1155723 0 577802 -1658642z"/>
   <path class="fil1" d="M5602864 4417377l-692371 54686 0 144569c338744,0 378548,34961 378548,278980l0 2610268c0,224058 -54804,224176 -378548,224176l0 144451 1071037 0 0 -144569c-318902,0 -378666,118 -378666,-224058l0 -3088503z"/>
   <path class="fil1" d="M6688901 6972842c234097,154490 433352,154490 488156,154490 448352,0 782136,-338744 782136,-722371 0,-134529 -39922,-323744 -199254,-483195 194294,-199373 428391,-199254 453313,-199254 19961,-118 44764,0 64725,10039 -49843,19843 -74765,69686 -74765,124490 0,69568 49843,129569 129569,129569 39804,-236 129450,-24922 129450,-134529 118,-89765 -69686,-229137 -244019,-229137 -259019,-118 -453313,159333 -523117,234097 -149411,-114686 -323744,-179294 -513077,-179294 -448234,-118 -782017,338744 -782017,722253 0,283822 174333,468313 224176,513077 -59765,74528 -149529,219215 -149529,413509 118,288665 174451,413391 214255,438312 -229137,64607 -458273,244137 -458273,503156 0,343587 468195,627646 1080958,627646 592803,0 1085919,-263980 1085919,-637685 0,-124490 -34843,-418352 -333784,-572842 -253940,-129687 -503038,-129450 -931429,-129450 -303901,-236 -338744,0 -428391,-94607 -49843,-49961 -94726,-144569 -94726,-249098 0,-84686 29882,-169372 79725,-239176l0 0zm493116 49725c-438312,0 -438312,-503038 -438312,-617606 0,-89765 0,-293862 84686,-428391 94607,-144451 244137,-194294 348666,-194294 438431,-118 438431,503156 438431,617724 0,89529 0,293862 -84686,428391 -94726,144451 -244137,194294 -348784,194294l0 -118zm134529 1768368c-478234,0 -841900,-243901 -841900,-527841 118,-40040 10039,-234215 199254,-363666 109608,-69922 154490,-69804 503156,-69804 413509,-118 976429,0 976429,433470 0,293744 -378666,527959 -836939,527959l0 -118z"/>
   <path class="fil1" d="M10832614 6808312c0,-642409 -488156,-1155487 -1066076,-1155487 -597763,-236 -1070919,527959 -1070919,1155723 0,637567 498077,1115801 1065958,1115801 587842,-118 1071037,-488274 1071037,-1115801l0 -236zm-1065958 1006430c-184372,0 -408548,-79725 -552999,-323744 -134529,-224176 -139490,-518156 -139490,-727332 0,-189451 0,-493116 154372,-717292 139490,-214255 358705,-293980 533038,-293980 194294,0 403470,89647 537999,283941 154490,229137 154490,542959 154490,727332 0,174215 0,483195 -129569,717292 -139490,239058 -368627,333784 -557960,333784l118 0z"/>
  </g>
 </g>
</svg>
