<?xml version="1.0" encoding="UTF-8"?>
<!DOCTYPE svg PUBLIC "-//W3C//DTD SVG 1.1//EN" "http://www.w3.org/Graphics/SVG/1.1/DTD/svg11.dtd">
<!-- Creator: CorelDRAW X5 -->
<svg xmlns="http://www.w3.org/2000/svg" xml:space="preserve" width="128px" height="128px" style="shape-rendering:geometricPrecision; text-rendering:geometricPrecision; image-rendering:optimizeQuality; fill-rule:evenodd; clip-rule:evenodd"
viewBox="0 0 12800000 12800000"
 xmlns:xlink="http://www.w3.org/1999/xlink">
 <defs>
  <style type="text/css">
   <![CDATA[
    .str0 {stroke:#2B2A29;stroke-width:236223}
    .fil0 {fill:none}
    .fil1 {fill:black}
   ]]>
  </style>
 </defs>
 <g id="Layer_x0020_1">
  <metadata id="CorelCorpID_0Corel-Layer"/>
  <line class="fil0 str0" x1="0" y1="6400000" x2="0" y2= "6462363" />
  <line class="fil0 str0" x1="6400000" y1="0" x2="6400000" y2= "62363" />
  <line class="fil0 str0" x1="12800118" y1="6400000" x2="12800118" y2= "6462363" />
  <line class="fil0 str0" x1="6400000" y1="12737755" x2="6400000" y2= "12800118" />
  <g id="_172456728">
   <g id="latex">
     <metadata id="CorelCorpID_1">
      <odm name="Comments" value="Op" type="0"/>
     </metadata>
    <path class="fil1" d="M6433426 6035625c0,-1031351 -757214,-1818211 -1623918,-1818211 -886783,-118 -1628996,797018 -1628996,1818211 0,1011036 752253,1793290 1623918,1793290 891743,-118 1628996,-792057 1628996,-1793290l0 0zm-1623918 1678603c-508116,0 -1165644,-478116 -1165644,-1753368 0,-1220448 692371,-1633957 1160565,-1633957 493234,0 1165644,428509 1165644,1633957 0,1295095 -677371,1753486 -1160565,1753486l0 -118z"/>
    <path class="fil1" d="M7932027 8545971c-318783,0 -378548,236 -378548,-223940l0 -866822c89647,124490 293862,318902 612645,318902 572960,-118 1075997,-483195 1075997,-1125841 0,-632606 -468195,-1120762 -1011154,-1120762 -438431,-118 -672528,313823 -687528,333666l118 -333784 -692489 54922 0 144332c348666,0 378548,34961 378548,254176l0 2341092c0,224058 -54804,224294 -378548,224294l0 144451 1080958 0 0 -144687zm-378548 -2410778c0,-94726 0,-99568 54804,-179294 149411,-224294 393548,-318783 582763,-318783 373587,-236 672528,453195 672528,1011154 0,592684 -338744,1026154 -722371,1026154 -154372,-118 -298823,-64725 -398509,-159333 -114568,-114686 -189215,-214255 -189215,-353745l0 -1026154z"/>
   </g>
   <circle class="fil0 str0" cx="6400000" cy="6400000" r="5450854"/>
  </g>
 </g>
</svg>
