<?xml version="1.0" encoding="UTF-8"?>
<!DOCTYPE svg PUBLIC "-//W3C//DTD SVG 1.1//EN" "http://www.w3.org/Graphics/SVG/1.1/DTD/svg11.dtd">
<!-- Creator: CorelDRAW X7 -->
<svg xmlns="http://www.w3.org/2000/svg" xml:space="preserve" width="100%" height="100%" version="1.1" style="shape-rendering:geometricPrecision; text-rendering:geometricPrecision; image-rendering:optimizeQuality; fill-rule:evenodd; clip-rule:evenodd"
viewBox="0 0 2167 2167"
 xmlns:xlink="http://www.w3.org/1999/xlink">
 <defs>
  <style type="text/css">
   <![CDATA[
    .str0 {stroke:#2B2A29;stroke-width:20}
    .fil0 {fill:none}
    .fil1 {fill:#2B2A29}
   ]]>
  </style>
 </defs>
 <g id="Layer_x0020_1">
  <metadata id="CorelCorpID_0Corel-Layer"/>
  <g id="_647169456">
   <line class="fil0 str0" x1="0" y1="1084" x2="0" y2= "1094" />
   <line class="fil0 str0" x1="1084" y1="0" x2="1084" y2= "11" />
   <line class="fil0 str0" x1="2167" y1="1084" x2="2167" y2= "1094" />
   <line class="fil0 str0" x1="1084" y1="2157" x2="1084" y2= "2167" />
   <path class="fil0 str0" d="M1084 161c509,0 923,413 923,923 0,509 -414,923 -923,923 -510,0 -923,-414 -923,-923 0,-510 413,-923 923,-923z"/>
  </g>
  <path class="fil1" d="M1007 822l0 14c-14,0 -25,2 -33,7 -8,5 -16,13 -24,27 -5,8 -13,30 -23,63l-143 413 -15 0 -117 -328 -115 328 -14 0 -151 -425c-12,-32 -19,-51 -22,-57 -5,-10 -12,-17 -21,-21 -8,-5 -20,-7 -35,-7l0 -14 189 0 0 14 -9 0c-13,0 -23,3 -30,9 -7,6 -11,13 -11,22 0,9 6,29 17,61l101 287 85 -244 -16 -43 -12 -35c-5,-12 -11,-23 -18,-33 -3,-5 -7,-9 -12,-12 -6,-5 -12,-8 -19,-10 -4,-2 -12,-2 -22,-2l0 -14 199 0 0 14 -14 0c-14,0 -24,3 -31,9 -6,6 -10,14 -10,24 0,13 6,36 17,68l99 278 97 -282c11,-31 17,-53 17,-65 0,-6 -2,-11 -6,-16 -4,-5 -8,-9 -14,-11 -9,-4 -22,-5 -37,-5l0 -14 153 0zm245 498l0 14 -220 0 0 -14 19 0c21,0 36,-6 46,-18 6,-8 9,-28 9,-58l0 -332c0,-26 -2,-43 -5,-51 -3,-6 -8,-12 -16,-16 -11,-6 -22,-9 -34,-9l-19 0 0 -14 220 0 0 14 -19 0c-20,0 -36,6 -45,18 -6,8 -10,27 -10,58l0 332c0,26 2,43 5,51 3,6 8,12 16,16 11,6 22,9 34,9l19 0zm144 -270c40,-48 79,-72 115,-72 19,0 35,5 49,14 13,9 24,25 32,47 6,15 8,38 8,69l0 148c0,22 2,37 6,44 2,7 7,12 13,15 6,3 18,5 34,5l0 14 -171 0 0 -14 7 0c16,0 28,-2 34,-7 6,-5 11,-12 13,-22 1,-3 2,-15 2,-35l0 -142c0,-32 -4,-55 -12,-69 -8,-14 -22,-22 -41,-22 -30,0 -60,17 -89,50l0 183c0,23 1,38 4,43 3,7 8,13 14,16 7,4 19,5 38,5l0 14 -172 0 0 -14 8 0c18,0 30,-4 36,-13 6,-9 9,-26 9,-51l0 -128c0,-42 -1,-67 -3,-76 -2,-9 -5,-15 -8,-19 -4,-3 -10,-4 -16,-4 -7,0 -15,2 -25,5l-6 -14 104 -42 17 0 0 72zm386 -176l0 114 81 0 0 25 -81 1 0 224c0,23 3,38 10,46 6,8 14,12 24,12 9,0 17,-3 25,-8 7,-5 13,-13 18,-23l14 0c-8,24 -21,43 -37,56 -16,12 -33,19 -50,19 -12,0 -23,-4 -34,-10 -11,-7 -19,-16 -24,-28 -6,-12 -8,-30 -8,-55l0 -234 -55 0 0 -12c14,-5 28,-14 42,-27 15,-14 28,-29 39,-47 6,-10 14,-27 25,-53l11 0z"/>
 </g>
</svg>
